<mxfile host="app.diagrams.net" modified="2023-02-15T03:35:47.256Z" agent="5.0 (Windows NT 10.0; Win64; x64) AppleWebKit/537.36 (KHTML, like Gecko) Chrome/109.0.0.0 Safari/537.36" etag="GYs561fg8W6iAJDBQk__" version="20.8.1" type="github">
  <diagram id="4Sr3pd_Fo9CKyCCXNbhV" name="第 1 页">
    <mxGraphModel dx="2222" dy="292" grid="1" gridSize="10" guides="1" tooltips="1" connect="1" arrows="1" fold="1" page="1" pageScale="1" pageWidth="827" pageHeight="1169" math="0" shadow="0">
      <root>
        <mxCell id="0" />
        <mxCell id="1" parent="0" />
        <mxCell id="rn0mMrodME0fii2WGuMn-10" style="edgeStyle=none;rounded=0;orthogonalLoop=1;jettySize=auto;html=1;exitX=0.5;exitY=1;exitDx=0;exitDy=0;entryX=0.5;entryY=0;entryDx=0;entryDy=0;" parent="1" source="rn0mMrodME0fii2WGuMn-2" target="rn0mMrodME0fii2WGuMn-3" edge="1">
          <mxGeometry relative="1" as="geometry" />
        </mxCell>
        <mxCell id="rn0mMrodME0fii2WGuMn-2" value="选择并复制已有方案" style="rounded=1;whiteSpace=wrap;html=1;fillColor=#008a00;strokeColor=#005700;fontColor=#ffffff;" parent="1" vertex="1">
          <mxGeometry x="355" y="10" width="90" height="30" as="geometry" />
        </mxCell>
        <mxCell id="rn0mMrodME0fii2WGuMn-11" style="edgeStyle=none;rounded=0;orthogonalLoop=1;jettySize=auto;html=1;exitX=1;exitY=0.5;exitDx=0;exitDy=0;" parent="1" source="rn0mMrodME0fii2WGuMn-3" edge="1">
          <mxGeometry relative="1" as="geometry">
            <mxPoint x="480" y="120" as="targetPoint" />
          </mxGeometry>
        </mxCell>
        <mxCell id="rn0mMrodME0fii2WGuMn-12" style="edgeStyle=none;rounded=0;orthogonalLoop=1;jettySize=auto;html=1;exitX=0;exitY=0.5;exitDx=0;exitDy=0;" parent="1" source="rn0mMrodME0fii2WGuMn-3" edge="1">
          <mxGeometry relative="1" as="geometry">
            <mxPoint x="320" y="120" as="targetPoint" />
          </mxGeometry>
        </mxCell>
        <mxCell id="rn0mMrodME0fii2WGuMn-13" style="edgeStyle=none;rounded=0;orthogonalLoop=1;jettySize=auto;html=1;exitX=0.5;exitY=1;exitDx=0;exitDy=0;entryX=0.5;entryY=0;entryDx=0;entryDy=0;" parent="1" source="rn0mMrodME0fii2WGuMn-3" target="rn0mMrodME0fii2WGuMn-14" edge="1">
          <mxGeometry relative="1" as="geometry">
            <mxPoint x="400" y="210" as="targetPoint" />
          </mxGeometry>
        </mxCell>
        <mxCell id="rn0mMrodME0fii2WGuMn-3" value="添加方式" style="rhombus;whiteSpace=wrap;html=1;fillColor=#6a00ff;fontColor=#ffffff;strokeColor=#3700CC;" parent="1" vertex="1">
          <mxGeometry x="370" y="90" width="60" height="60" as="geometry" />
        </mxCell>
        <mxCell id="rn0mMrodME0fii2WGuMn-4" value="增量覆盖" style="rounded=1;whiteSpace=wrap;html=1;" parent="1" vertex="1">
          <mxGeometry x="200" y="105" width="110" height="30" as="geometry" />
        </mxCell>
        <mxCell id="rn0mMrodME0fii2WGuMn-26" value="" style="edgeStyle=orthogonalEdgeStyle;rounded=0;orthogonalLoop=1;jettySize=auto;html=1;" parent="1" source="rn0mMrodME0fii2WGuMn-6" target="rn0mMrodME0fii2WGuMn-25" edge="1">
          <mxGeometry relative="1" as="geometry" />
        </mxCell>
        <mxCell id="rn0mMrodME0fii2WGuMn-6" value="全量覆盖" style="rounded=1;whiteSpace=wrap;html=1;fillColor=#d0cee2;strokeColor=#56517e;" parent="1" vertex="1">
          <mxGeometry x="490" y="105" width="110" height="30" as="geometry" />
        </mxCell>
        <mxCell id="rn0mMrodME0fii2WGuMn-19" style="edgeStyle=none;rounded=0;orthogonalLoop=1;jettySize=auto;html=1;exitX=0.5;exitY=1;exitDx=0;exitDy=0;entryX=0.5;entryY=0;entryDx=0;entryDy=0;" parent="1" source="rn0mMrodME0fii2WGuMn-8" target="rn0mMrodME0fii2WGuMn-15" edge="1">
          <mxGeometry relative="1" as="geometry" />
        </mxCell>
        <mxCell id="rn0mMrodME0fii2WGuMn-8" value="增量覆盖" style="rounded=1;whiteSpace=wrap;html=1;fillColor=#d0cee2;strokeColor=#56517e;" parent="1" vertex="1">
          <mxGeometry x="200" y="105" width="110" height="35" as="geometry" />
        </mxCell>
        <mxCell id="rn0mMrodME0fii2WGuMn-14" value="结束" style="rounded=1;whiteSpace=wrap;html=1;fillColor=#a20025;strokeColor=#6F0000;fontColor=#ffffff;" parent="1" vertex="1">
          <mxGeometry x="340" y="340" width="120" height="60" as="geometry" />
        </mxCell>
        <mxCell id="rn0mMrodME0fii2WGuMn-21" value="是" style="edgeStyle=orthogonalEdgeStyle;rounded=0;orthogonalLoop=1;jettySize=auto;html=1;exitX=0.5;exitY=1;exitDx=0;exitDy=0;entryX=0.5;entryY=0;entryDx=0;entryDy=0;" parent="1" source="rn0mMrodME0fii2WGuMn-15" target="rn0mMrodME0fii2WGuMn-20" edge="1">
          <mxGeometry relative="1" as="geometry" />
        </mxCell>
        <mxCell id="rn0mMrodME0fii2WGuMn-33" value="否" style="edgeStyle=orthogonalEdgeStyle;rounded=0;orthogonalLoop=1;jettySize=auto;html=1;exitX=0;exitY=0.5;exitDx=0;exitDy=0;entryX=1;entryY=0.5;entryDx=0;entryDy=0;" parent="1" source="rn0mMrodME0fii2WGuMn-15" target="rn0mMrodME0fii2WGuMn-32" edge="1">
          <mxGeometry relative="1" as="geometry" />
        </mxCell>
        <mxCell id="rn0mMrodME0fii2WGuMn-35" value="所有方案都失败" style="edgeStyle=orthogonalEdgeStyle;rounded=0;orthogonalLoop=1;jettySize=auto;html=1;exitX=1;exitY=0.5;exitDx=0;exitDy=0;entryX=0.5;entryY=0;entryDx=0;entryDy=0;" parent="1" source="rn0mMrodME0fii2WGuMn-15" target="rn0mMrodME0fii2WGuMn-14" edge="1">
          <mxGeometry x="-0.4902" relative="1" as="geometry">
            <mxPoint as="offset" />
          </mxGeometry>
        </mxCell>
        <mxCell id="rn0mMrodME0fii2WGuMn-15" value="校验策略数据" style="rhombus;whiteSpace=wrap;html=1;fillColor=#6a00ff;fontColor=#ffffff;strokeColor=#3700CC;" parent="1" vertex="1">
          <mxGeometry x="225" y="170" width="60" height="60" as="geometry" />
        </mxCell>
        <mxCell id="rn0mMrodME0fii2WGuMn-23" style="edgeStyle=orthogonalEdgeStyle;rounded=0;orthogonalLoop=1;jettySize=auto;html=1;exitX=0.5;exitY=1;exitDx=0;exitDy=0;entryX=0.5;entryY=0;entryDx=0;entryDy=0;" parent="1" source="rn0mMrodME0fii2WGuMn-20" target="rn0mMrodME0fii2WGuMn-22" edge="1">
          <mxGeometry relative="1" as="geometry" />
        </mxCell>
        <mxCell id="rn0mMrodME0fii2WGuMn-20" value="复制创建新策略" style="rounded=1;whiteSpace=wrap;html=1;fillColor=#d0cee2;strokeColor=#56517e;" parent="1" vertex="1">
          <mxGeometry x="200" y="260" width="110" height="35" as="geometry" />
        </mxCell>
        <mxCell id="rn0mMrodME0fii2WGuMn-36" style="edgeStyle=orthogonalEdgeStyle;rounded=0;orthogonalLoop=1;jettySize=auto;html=1;exitX=1;exitY=0.5;exitDx=0;exitDy=0;entryX=0;entryY=0.5;entryDx=0;entryDy=0;" parent="1" source="rn0mMrodME0fii2WGuMn-22" target="rn0mMrodME0fii2WGuMn-14" edge="1">
          <mxGeometry relative="1" as="geometry" />
        </mxCell>
        <mxCell id="rn0mMrodME0fii2WGuMn-40" style="edgeStyle=orthogonalEdgeStyle;rounded=0;orthogonalLoop=1;jettySize=auto;html=1;exitX=0;exitY=0.5;exitDx=0;exitDy=0;dashed=1;entryX=0.5;entryY=0;entryDx=0;entryDy=0;" parent="1" source="rn0mMrodME0fii2WGuMn-22" target="rn0mMrodME0fii2WGuMn-15" edge="1">
          <mxGeometry relative="1" as="geometry">
            <mxPoint x="260" y="160" as="targetPoint" />
            <Array as="points">
              <mxPoint x="30" y="365" />
              <mxPoint x="30" y="150" />
              <mxPoint x="255" y="150" />
            </Array>
          </mxGeometry>
        </mxCell>
        <mxCell id="rn0mMrodME0fii2WGuMn-41" value="存在多个方案" style="edgeLabel;html=1;align=center;verticalAlign=middle;resizable=0;points=[];" parent="rn0mMrodME0fii2WGuMn-40" vertex="1" connectable="0">
          <mxGeometry x="-0.207" y="1" relative="1" as="geometry">
            <mxPoint as="offset" />
          </mxGeometry>
        </mxCell>
        <mxCell id="rn0mMrodME0fii2WGuMn-22" value="排序添加策略关联方案，默认有效" style="rounded=1;whiteSpace=wrap;html=1;fillColor=#d0cee2;strokeColor=#56517e;" parent="1" vertex="1">
          <mxGeometry x="200" y="345" width="110" height="40" as="geometry" />
        </mxCell>
        <mxCell id="rn0mMrodME0fii2WGuMn-31" style="edgeStyle=orthogonalEdgeStyle;rounded=0;orthogonalLoop=1;jettySize=auto;html=1;exitX=0.5;exitY=1;exitDx=0;exitDy=0;entryX=0.5;entryY=0;entryDx=0;entryDy=0;" parent="1" source="rn0mMrodME0fii2WGuMn-25" target="rn0mMrodME0fii2WGuMn-27" edge="1">
          <mxGeometry relative="1" as="geometry" />
        </mxCell>
        <mxCell id="rn0mMrodME0fii2WGuMn-25" value="将原有方案下策略置为无效" style="whiteSpace=wrap;html=1;rounded=1;fillColor=#d0cee2;strokeColor=#56517e;" parent="1" vertex="1">
          <mxGeometry x="487.5" y="170" width="115" height="30" as="geometry" />
        </mxCell>
        <mxCell id="rn0mMrodME0fii2WGuMn-29" style="edgeStyle=orthogonalEdgeStyle;rounded=0;orthogonalLoop=1;jettySize=auto;html=1;exitX=0.5;exitY=1;exitDx=0;exitDy=0;entryX=0.5;entryY=0;entryDx=0;entryDy=0;" parent="1" source="rn0mMrodME0fii2WGuMn-27" target="rn0mMrodME0fii2WGuMn-28" edge="1">
          <mxGeometry relative="1" as="geometry" />
        </mxCell>
        <mxCell id="rn0mMrodME0fii2WGuMn-27" value="删除原有方案策略" style="rounded=1;whiteSpace=wrap;html=1;fillColor=#d0cee2;strokeColor=#56517e;" parent="1" vertex="1">
          <mxGeometry x="487.5" y="230" width="110" height="30" as="geometry" />
        </mxCell>
        <mxCell id="rn0mMrodME0fii2WGuMn-30" style="edgeStyle=orthogonalEdgeStyle;rounded=0;orthogonalLoop=1;jettySize=auto;html=1;exitX=0.5;exitY=1;exitDx=0;exitDy=0;entryX=1;entryY=0.5;entryDx=0;entryDy=0;" parent="1" source="rn0mMrodME0fii2WGuMn-28" target="rn0mMrodME0fii2WGuMn-14" edge="1">
          <mxGeometry relative="1" as="geometry" />
        </mxCell>
        <mxCell id="rn0mMrodME0fii2WGuMn-37" value="存在多个方案" style="edgeStyle=orthogonalEdgeStyle;rounded=0;orthogonalLoop=1;jettySize=auto;html=1;exitX=1;exitY=0.5;exitDx=0;exitDy=0;entryX=1;entryY=0.25;entryDx=0;entryDy=0;dashed=1;" parent="1" source="rn0mMrodME0fii2WGuMn-28" target="rn0mMrodME0fii2WGuMn-25" edge="1">
          <mxGeometry relative="1" as="geometry">
            <Array as="points">
              <mxPoint x="650" y="300" />
              <mxPoint x="650" y="178" />
            </Array>
          </mxGeometry>
        </mxCell>
        <mxCell id="rn0mMrodME0fii2WGuMn-28" value="新增策略并排序，默认有效" style="rounded=1;whiteSpace=wrap;html=1;fillColor=#d0cee2;strokeColor=#56517e;" parent="1" vertex="1">
          <mxGeometry x="487.5" y="285" width="110" height="30" as="geometry" />
        </mxCell>
        <mxCell id="rn0mMrodME0fii2WGuMn-34" value="校验下一个方案" style="edgeStyle=orthogonalEdgeStyle;rounded=0;orthogonalLoop=1;jettySize=auto;html=1;exitX=0.5;exitY=0;exitDx=0;exitDy=0;entryX=0.5;entryY=0;entryDx=0;entryDy=0;dashed=1;" parent="1" source="rn0mMrodME0fii2WGuMn-32" target="rn0mMrodME0fii2WGuMn-15" edge="1">
          <mxGeometry relative="1" as="geometry" />
        </mxCell>
        <mxCell id="rn0mMrodME0fii2WGuMn-32" value="记录失败的方案" style="rounded=1;whiteSpace=wrap;html=1;fillColor=#d0cee2;strokeColor=#56517e;" parent="1" vertex="1">
          <mxGeometry x="70" y="182.5" width="110" height="35" as="geometry" />
        </mxCell>
        <mxCell id="rn0mMrodME0fii2WGuMn-43" value="保存并一键变更全部方案" style="rounded=1;whiteSpace=wrap;html=1;fillColor=#008a00;strokeColor=#005700;fontColor=#ffffff;" parent="1" vertex="1">
          <mxGeometry x="387.5" y="730" width="90" height="30" as="geometry" />
        </mxCell>
        <mxCell id="rn0mMrodME0fii2WGuMn-51" style="edgeStyle=none;rounded=0;orthogonalLoop=1;jettySize=auto;html=1;exitX=0.5;exitY=1;exitDx=0;exitDy=0;entryX=0.5;entryY=0;entryDx=0;entryDy=0;" parent="1" target="rn0mMrodME0fii2WGuMn-57" edge="1">
          <mxGeometry relative="1" as="geometry">
            <mxPoint x="432.5" y="765" as="sourcePoint" />
          </mxGeometry>
        </mxCell>
        <mxCell id="rn0mMrodME0fii2WGuMn-53" value="结束" style="rounded=1;whiteSpace=wrap;html=1;fillColor=#a20025;strokeColor=#6F0000;fontColor=#ffffff;" parent="1" vertex="1">
          <mxGeometry x="370" y="1050" width="120" height="60" as="geometry" />
        </mxCell>
        <mxCell id="rn0mMrodME0fii2WGuMn-54" value="是" style="edgeStyle=orthogonalEdgeStyle;rounded=0;orthogonalLoop=1;jettySize=auto;html=1;exitX=0.5;exitY=1;exitDx=0;exitDy=0;entryX=0.5;entryY=0;entryDx=0;entryDy=0;" parent="1" source="rn0mMrodME0fii2WGuMn-57" target="rn0mMrodME0fii2WGuMn-59" edge="1">
          <mxGeometry relative="1" as="geometry" />
        </mxCell>
        <mxCell id="rn0mMrodME0fii2WGuMn-55" value="否" style="edgeStyle=orthogonalEdgeStyle;rounded=0;orthogonalLoop=1;jettySize=auto;html=1;exitX=0;exitY=0.5;exitDx=0;exitDy=0;entryX=1;entryY=0.5;entryDx=0;entryDy=0;" parent="1" source="rn0mMrodME0fii2WGuMn-57" target="rn0mMrodME0fii2WGuMn-72" edge="1">
          <mxGeometry relative="1" as="geometry" />
        </mxCell>
        <mxCell id="rn0mMrodME0fii2WGuMn-57" value="校验策略数据" style="rhombus;whiteSpace=wrap;html=1;fillColor=#6a00ff;fontColor=#ffffff;strokeColor=#3700CC;" parent="1" vertex="1">
          <mxGeometry x="402.5" y="795" width="60" height="60" as="geometry" />
        </mxCell>
        <mxCell id="rn0mMrodME0fii2WGuMn-58" style="edgeStyle=orthogonalEdgeStyle;rounded=0;orthogonalLoop=1;jettySize=auto;html=1;exitX=0.5;exitY=1;exitDx=0;exitDy=0;entryX=0.5;entryY=0;entryDx=0;entryDy=0;" parent="1" source="rn0mMrodME0fii2WGuMn-59" target="rn0mMrodME0fii2WGuMn-63" edge="1">
          <mxGeometry relative="1" as="geometry" />
        </mxCell>
        <mxCell id="rn0mMrodME0fii2WGuMn-59" value="复制创建新策略" style="rounded=1;whiteSpace=wrap;html=1;fillColor=#d0cee2;strokeColor=#56517e;" parent="1" vertex="1">
          <mxGeometry x="377.5" y="885" width="110" height="35" as="geometry" />
        </mxCell>
        <mxCell id="rn0mMrodME0fii2WGuMn-61" style="edgeStyle=orthogonalEdgeStyle;rounded=0;orthogonalLoop=1;jettySize=auto;html=1;exitX=0;exitY=0.5;exitDx=0;exitDy=0;dashed=1;entryX=0.5;entryY=0;entryDx=0;entryDy=0;" parent="1" source="rn0mMrodME0fii2WGuMn-63" target="rn0mMrodME0fii2WGuMn-57" edge="1">
          <mxGeometry relative="1" as="geometry">
            <mxPoint x="437.5" y="785" as="targetPoint" />
            <Array as="points">
              <mxPoint x="207.5" y="990" />
              <mxPoint x="207.5" y="775" />
              <mxPoint x="432.5" y="775" />
            </Array>
          </mxGeometry>
        </mxCell>
        <mxCell id="rn0mMrodME0fii2WGuMn-62" value="存在多个方案" style="edgeLabel;html=1;align=center;verticalAlign=middle;resizable=0;points=[];" parent="rn0mMrodME0fii2WGuMn-61" vertex="1" connectable="0">
          <mxGeometry x="-0.207" y="1" relative="1" as="geometry">
            <mxPoint as="offset" />
          </mxGeometry>
        </mxCell>
        <mxCell id="rn0mMrodME0fii2WGuMn-78" style="edgeStyle=orthogonalEdgeStyle;rounded=0;orthogonalLoop=1;jettySize=auto;html=1;exitX=0.5;exitY=1;exitDx=0;exitDy=0;" parent="1" source="rn0mMrodME0fii2WGuMn-63" edge="1">
          <mxGeometry relative="1" as="geometry">
            <mxPoint x="433" y="1050" as="targetPoint" />
          </mxGeometry>
        </mxCell>
        <mxCell id="rn0mMrodME0fii2WGuMn-63" value="排序添加策略关联方案，默认有效" style="rounded=1;whiteSpace=wrap;html=1;fillColor=#d0cee2;strokeColor=#56517e;" parent="1" vertex="1">
          <mxGeometry x="377.5" y="970" width="110" height="40" as="geometry" />
        </mxCell>
        <mxCell id="rn0mMrodME0fii2WGuMn-71" value="校验下一个方案" style="edgeStyle=orthogonalEdgeStyle;rounded=0;orthogonalLoop=1;jettySize=auto;html=1;exitX=0.5;exitY=0;exitDx=0;exitDy=0;entryX=0.5;entryY=0;entryDx=0;entryDy=0;dashed=1;" parent="1" source="rn0mMrodME0fii2WGuMn-72" target="rn0mMrodME0fii2WGuMn-57" edge="1">
          <mxGeometry relative="1" as="geometry" />
        </mxCell>
        <mxCell id="rn0mMrodME0fii2WGuMn-72" value="记录失败的方案" style="rounded=1;whiteSpace=wrap;html=1;fillColor=#d0cee2;strokeColor=#56517e;" parent="1" vertex="1">
          <mxGeometry x="247.5" y="807.5" width="110" height="35" as="geometry" />
        </mxCell>
        <mxCell id="rn0mMrodME0fii2WGuMn-79" value="t_menu_category&lt;br&gt;类目信息表" style="swimlane;whiteSpace=wrap;html=1;startSize=30;fillColor=#1ba1e2;fontColor=#ffffff;strokeColor=#006EAF;" parent="1" vertex="1">
          <mxGeometry x="-750" y="15" width="189" height="180" as="geometry" />
        </mxCell>
        <mxCell id="rn0mMrodME0fii2WGuMn-80" value="id 主键&lt;br&gt;parent_id 父id&lt;br&gt;name 姓名&lt;br&gt;level 级别&lt;br&gt;available_status 有效状态&lt;br&gt;delete_status 删除状态&lt;br&gt;sort_num 排序值&lt;br&gt;color 色值&lt;br&gt;desc 描述" style="text;html=1;align=left;verticalAlign=middle;resizable=0;points=[];autosize=1;strokeColor=none;fillColor=none;" parent="rn0mMrodME0fii2WGuMn-79" vertex="1">
          <mxGeometry x="20" y="30" width="160" height="140" as="geometry" />
        </mxCell>
        <mxCell id="rn0mMrodME0fii2WGuMn-81" value="t_menu_commodity&lt;br&gt;三级类目商品信息表" style="swimlane;whiteSpace=wrap;html=1;startSize=30;fillColor=#1ba1e2;fontColor=#ffffff;strokeColor=#006EAF;" parent="1" vertex="1">
          <mxGeometry x="-400" y="380" width="190" height="175" as="geometry" />
        </mxCell>
        <mxCell id="rn0mMrodME0fii2WGuMn-82" value="id 主键&lt;br&gt;commodity_id 商品id&lt;br&gt;commodity_code 商品编号&lt;br&gt;third_tactic_id 三级策略ID&lt;br&gt;sort_num 排序值&lt;br&gt;delete_status 删除状态" style="text;html=1;align=left;verticalAlign=middle;resizable=0;points=[];autosize=1;strokeColor=none;fillColor=none;" parent="rn0mMrodME0fii2WGuMn-81" vertex="1">
          <mxGeometry x="10" y="37.5" width="170" height="100" as="geometry" />
        </mxCell>
        <mxCell id="rn0mMrodME0fii2WGuMn-83" value="t_menu_period&lt;br&gt;三级类目时间段表" style="swimlane;whiteSpace=wrap;html=1;startSize=30;fillColor=#1ba1e2;fontColor=#ffffff;strokeColor=#006EAF;" parent="1" vertex="1">
          <mxGeometry x="-410" y="15" width="200" height="175" as="geometry" />
        </mxCell>
        <mxCell id="rn0mMrodME0fii2WGuMn-84" value="id 主键&lt;br&gt;third_tactic_id 三级策略ID&lt;br&gt;period_main_type 时间段主类型&lt;br&gt;period_sub_type 时间段子类型&lt;br&gt;period_start_time 开始时间&lt;br&gt;period_end_time 结束时间&lt;br&gt;period_day 星期集合，逗号隔开&lt;br&gt;delete_status 删除状态" style="text;html=1;align=left;verticalAlign=middle;resizable=0;points=[];autosize=1;strokeColor=none;fillColor=none;" parent="rn0mMrodME0fii2WGuMn-83" vertex="1">
          <mxGeometry x="10" y="30" width="190" height="130" as="geometry" />
        </mxCell>
        <mxCell id="rn0mMrodME0fii2WGuMn-99" style="edgeStyle=orthogonalEdgeStyle;rounded=0;orthogonalLoop=1;jettySize=auto;html=1;exitX=1;exitY=0.25;exitDx=0;exitDy=0;" parent="1" source="rn0mMrodME0fii2WGuMn-85" edge="1">
          <mxGeometry relative="1" as="geometry">
            <mxPoint x="-1080" y="85.17647058823536" as="targetPoint" />
          </mxGeometry>
        </mxCell>
        <mxCell id="rn0mMrodME0fii2WGuMn-100" value="1 : N" style="edgeLabel;html=1;align=center;verticalAlign=middle;resizable=0;points=[];" parent="rn0mMrodME0fii2WGuMn-99" vertex="1" connectable="0">
          <mxGeometry x="-0.288" relative="1" as="geometry">
            <mxPoint as="offset" />
          </mxGeometry>
        </mxCell>
        <mxCell id="rn0mMrodME0fii2WGuMn-85" value="t_menu_plan&lt;br&gt;经典菜单方案信息表" style="swimlane;whiteSpace=wrap;html=1;startSize=30;fillColor=#1ba1e2;fontColor=#ffffff;strokeColor=#006EAF;" parent="1" vertex="1">
          <mxGeometry x="-1410" y="15" width="210" height="280" as="geometry" />
        </mxCell>
        <mxCell id="rn0mMrodME0fii2WGuMn-86" value="id 主键&lt;br&gt;plan_no 方案id&lt;br&gt;plan_name 方案名称&lt;br&gt;menu_name 菜单名称&lt;br&gt;plan_start_time 方案开始时间&lt;br&gt;plan_end_time 方案结束时间&lt;br&gt;enable_status 启动状态&lt;br&gt;is_default 是否默认方案&lt;br&gt;config_status 配置状态&lt;br&gt;desc 描述&lt;br&gt;create_by 创建人&lt;br&gt;create_time 创建时间&lt;br&gt;last_modify_by 修改人&lt;br&gt;last_modify_time 最后修改时间&lt;br&gt;remark 备注&lt;br&gt;delete_status 删除状态" style="text;html=1;align=left;verticalAlign=middle;resizable=0;points=[];autosize=1;strokeColor=none;fillColor=none;" parent="rn0mMrodME0fii2WGuMn-85" vertex="1">
          <mxGeometry x="10" y="30" width="190" height="240" as="geometry" />
        </mxCell>
        <mxCell id="rn0mMrodME0fii2WGuMn-105" value="1 : N" style="edgeStyle=orthogonalEdgeStyle;rounded=0;orthogonalLoop=1;jettySize=auto;html=1;exitX=0.25;exitY=1;exitDx=0;exitDy=0;entryX=0.25;entryY=0;entryDx=0;entryDy=0;" parent="1" source="rn0mMrodME0fii2WGuMn-87" target="rn0mMrodME0fii2WGuMn-92" edge="1">
          <mxGeometry relative="1" as="geometry" />
        </mxCell>
        <mxCell id="rn0mMrodME0fii2WGuMn-87" value="t_menu_second_tactic&lt;br&gt;二级类目策略信息表" style="swimlane;whiteSpace=wrap;html=1;startSize=30;fillColor=#1ba1e2;fontColor=#ffffff;strokeColor=#006EAF;" parent="1" vertex="1">
          <mxGeometry x="-750" y="240" width="189" height="120" as="geometry" />
        </mxCell>
        <mxCell id="rn0mMrodME0fii2WGuMn-88" value="id 主键，二级策略ID&lt;br&gt;tactic_id 策略ID&lt;br&gt;category_id 所属类目ID&lt;br&gt;delete_status 删除状态" style="text;html=1;align=left;verticalAlign=middle;resizable=0;points=[];autosize=1;strokeColor=none;fillColor=none;" parent="rn0mMrodME0fii2WGuMn-87" vertex="1">
          <mxGeometry x="10" y="35" width="150" height="70" as="geometry" />
        </mxCell>
        <mxCell id="rn0mMrodME0fii2WGuMn-101" style="edgeStyle=orthogonalEdgeStyle;rounded=0;orthogonalLoop=1;jettySize=auto;html=1;exitX=1;exitY=0.25;exitDx=0;exitDy=0;" parent="1" source="rn0mMrodME0fii2WGuMn-89" edge="1">
          <mxGeometry relative="1" as="geometry">
            <mxPoint x="-750" y="145.17647058823536" as="targetPoint" />
          </mxGeometry>
        </mxCell>
        <mxCell id="rn0mMrodME0fii2WGuMn-102" value="N : N" style="edgeLabel;html=1;align=center;verticalAlign=middle;resizable=0;points=[];" parent="rn0mMrodME0fii2WGuMn-101" vertex="1" connectable="0">
          <mxGeometry x="-0.2858" y="-3" relative="1" as="geometry">
            <mxPoint as="offset" />
          </mxGeometry>
        </mxCell>
        <mxCell id="rn0mMrodME0fii2WGuMn-103" style="edgeStyle=orthogonalEdgeStyle;rounded=0;orthogonalLoop=1;jettySize=auto;html=1;exitX=1;exitY=0.5;exitDx=0;exitDy=0;" parent="1" source="rn0mMrodME0fii2WGuMn-89" edge="1">
          <mxGeometry relative="1" as="geometry">
            <mxPoint x="-750" y="274.5882352941177" as="targetPoint" />
          </mxGeometry>
        </mxCell>
        <mxCell id="rn0mMrodME0fii2WGuMn-104" value="1 : N" style="edgeLabel;html=1;align=center;verticalAlign=middle;resizable=0;points=[];" parent="rn0mMrodME0fii2WGuMn-103" vertex="1" connectable="0">
          <mxGeometry x="0.2159" y="-3" relative="1" as="geometry">
            <mxPoint x="-15" as="offset" />
          </mxGeometry>
        </mxCell>
        <mxCell id="rn0mMrodME0fii2WGuMn-89" value="t_menu_tactic&lt;br&gt;经典菜单类目策略信息表" style="swimlane;whiteSpace=wrap;html=1;startSize=30;fillColor=#1ba1e2;fontColor=#ffffff;strokeColor=#006EAF;" parent="1" vertex="1">
          <mxGeometry x="-1080" y="15" width="240" height="520" as="geometry" />
        </mxCell>
        <mxCell id="rn0mMrodME0fii2WGuMn-90" value="id 主键&lt;br&gt;plan_id 所属方案id&lt;br&gt;tactic_no 策略编号&lt;br&gt;tactic_name 策略名称&lt;br&gt;&lt;span style=&quot;background-color: initial;&quot;&gt;category_id 所属菜单类目&lt;/span&gt;&lt;div&gt;available_status 有效状态&lt;/div&gt;&lt;div&gt;desc 策略描述&lt;/div&gt;&lt;div&gt;show_type 展示层级&lt;/div&gt;&lt;div&gt;is_algorithm 是否经过算法排序&lt;/div&gt;&lt;div&gt;create_by 创建人&lt;/div&gt;&lt;div&gt;create_time 创建时间&lt;/div&gt;&lt;div&gt;last_modify_by 最后修改人&lt;/div&gt;&lt;div&gt;last_modify_time 最后修改时间&lt;/div&gt;&lt;div&gt;remark 备注&lt;/div&gt;&lt;div&gt;delete_status 删除状态&lt;/div&gt;&lt;div&gt;sort_num 排序值&lt;/div&gt;&lt;div&gt;show_content_type 展示内容&lt;/div&gt;&lt;div&gt;show_num 展示数量&lt;/div&gt;&lt;div&gt;algorithm_replace 是否开启算法替位&lt;/div&gt;&lt;div&gt;algorithm_pattern 算法模型&lt;/div&gt;&lt;div&gt;top_replace_start 替换区间起始值&lt;/div&gt;&lt;div&gt;top_replace_end 替换区间结束值&lt;/div&gt;&lt;div&gt;commodity_tactic_no 商品策略编码&lt;/div&gt;&lt;div&gt;commodity_sort_type 商品排序类型&lt;/div&gt;&lt;div&gt;&lt;font color=&quot;#ff0000&quot;&gt;copy_source_tactic 复制源策略编号&lt;/font&gt;&lt;/div&gt;&lt;div&gt;&lt;font color=&quot;#ff0000&quot;&gt;scope_change_type 变更范围类型&lt;/font&gt;&lt;/div&gt;&lt;div&gt;&lt;font color=&quot;#ff0000&quot;&gt;period_main_type 时间段主类型&lt;/font&gt;&lt;/div&gt;&lt;div&gt;&lt;font color=&quot;#ff0000&quot;&gt;period_sub_type 时间段子类型&lt;/font&gt;&lt;/div&gt;&lt;div&gt;&lt;font color=&quot;#ff0000&quot;&gt;period_start_time 开始时间&lt;/font&gt;&lt;/div&gt;&lt;div&gt;&lt;font color=&quot;#ff0000&quot;&gt;period_end_time 结束时间&lt;/font&gt;&lt;/div&gt;&lt;div&gt;&lt;font color=&quot;#ff0000&quot;&gt;period_day 星期集合,逗号隔开&lt;/font&gt;&lt;/div&gt;" style="text;html=1;align=left;verticalAlign=middle;resizable=0;points=[];autosize=1;strokeColor=none;fillColor=none;" parent="rn0mMrodME0fii2WGuMn-89" vertex="1">
          <mxGeometry x="10" y="35" width="220" height="460" as="geometry" />
        </mxCell>
        <mxCell id="rn0mMrodME0fii2WGuMn-94" style="edgeStyle=orthogonalEdgeStyle;rounded=0;orthogonalLoop=1;jettySize=auto;html=1;exitX=1;exitY=0.5;exitDx=0;exitDy=0;" parent="1" source="rn0mMrodME0fii2WGuMn-92" edge="1">
          <mxGeometry relative="1" as="geometry">
            <mxPoint x="-400" y="470" as="targetPoint" />
          </mxGeometry>
        </mxCell>
        <mxCell id="rn0mMrodME0fii2WGuMn-98" value="1 : N" style="edgeLabel;html=1;align=center;verticalAlign=middle;resizable=0;points=[];" parent="rn0mMrodME0fii2WGuMn-94" vertex="1" connectable="0">
          <mxGeometry x="-0.1647" y="-4" relative="1" as="geometry">
            <mxPoint as="offset" />
          </mxGeometry>
        </mxCell>
        <mxCell id="rn0mMrodME0fii2WGuMn-96" style="edgeStyle=orthogonalEdgeStyle;rounded=0;orthogonalLoop=1;jettySize=auto;html=1;exitX=1;exitY=0.25;exitDx=0;exitDy=0;entryX=0;entryY=0.5;entryDx=0;entryDy=0;" parent="1" source="rn0mMrodME0fii2WGuMn-92" target="rn0mMrodME0fii2WGuMn-83" edge="1">
          <mxGeometry relative="1" as="geometry" />
        </mxCell>
        <mxCell id="rn0mMrodME0fii2WGuMn-97" value="1：N&lt;br&gt;" style="edgeLabel;html=1;align=center;verticalAlign=middle;resizable=0;points=[];" parent="rn0mMrodME0fii2WGuMn-96" vertex="1" connectable="0">
          <mxGeometry x="-0.093" y="-1" relative="1" as="geometry">
            <mxPoint as="offset" />
          </mxGeometry>
        </mxCell>
        <mxCell id="rn0mMrodME0fii2WGuMn-92" value="t_menu_third_tactic&lt;br&gt;三级类目策略信息表" style="swimlane;whiteSpace=wrap;html=1;startSize=30;fillColor=#1ba1e2;fontColor=#ffffff;strokeColor=#006EAF;" parent="1" vertex="1">
          <mxGeometry x="-750" y="410" width="189" height="120" as="geometry" />
        </mxCell>
        <mxCell id="rn0mMrodME0fii2WGuMn-93" value="id 主键，三级策略ID&lt;br&gt;tactic_id 策略ID&lt;br&gt;second_tatic_id 二级策略ID&lt;br&gt;delete_status 删除状态" style="text;html=1;align=left;verticalAlign=middle;resizable=0;points=[];autosize=1;strokeColor=none;fillColor=none;" parent="rn0mMrodME0fii2WGuMn-92" vertex="1">
          <mxGeometry x="10" y="35" width="170" height="70" as="geometry" />
        </mxCell>
        <mxCell id="rn0mMrodME0fii2WGuMn-165" style="edgeStyle=orthogonalEdgeStyle;rounded=0;orthogonalLoop=1;jettySize=auto;html=1;exitX=0.5;exitY=1;exitDx=0;exitDy=0;entryX=0.5;entryY=0;entryDx=0;entryDy=0;" parent="1" source="rn0mMrodME0fii2WGuMn-107" target="rn0mMrodME0fii2WGuMn-141" edge="1">
          <mxGeometry relative="1" as="geometry" />
        </mxCell>
        <mxCell id="rn0mMrodME0fii2WGuMn-107" value="排序" style="rounded=1;whiteSpace=wrap;html=1;fillColor=#008a00;strokeColor=#005700;fontColor=#ffffff;" parent="1" vertex="1">
          <mxGeometry x="-715" y="650" width="90" height="30" as="geometry" />
        </mxCell>
        <mxCell id="rn0mMrodME0fii2WGuMn-113" value="通过" style="edgeStyle=orthogonalEdgeStyle;rounded=0;orthogonalLoop=1;jettySize=auto;html=1;" parent="1" target="rn0mMrodME0fii2WGuMn-129" edge="1">
          <mxGeometry relative="1" as="geometry">
            <mxPoint x="-670.0588235294117" y="775" as="sourcePoint" />
          </mxGeometry>
        </mxCell>
        <mxCell id="rn0mMrodME0fii2WGuMn-117" value="结束" style="rounded=1;whiteSpace=wrap;html=1;fillColor=#a20025;strokeColor=#6F0000;fontColor=#ffffff;" parent="1" vertex="1">
          <mxGeometry x="-730" y="1205" width="120" height="60" as="geometry" />
        </mxCell>
        <mxCell id="rn0mMrodME0fii2WGuMn-183" style="edgeStyle=orthogonalEdgeStyle;rounded=0;orthogonalLoop=1;jettySize=auto;html=1;exitX=0.5;exitY=1;exitDx=0;exitDy=0;entryX=0.5;entryY=0;entryDx=0;entryDy=0;" parent="1" source="rn0mMrodME0fii2WGuMn-127" edge="1">
          <mxGeometry relative="1" as="geometry">
            <mxPoint x="-670" y="1020" as="targetPoint" />
          </mxGeometry>
        </mxCell>
        <mxCell id="rn0mMrodME0fii2WGuMn-127" value="上移、下移" style="rounded=1;whiteSpace=wrap;html=1;fillColor=#d0cee2;strokeColor=#56517e;" parent="1" vertex="1">
          <mxGeometry x="-725" y="950" width="110" height="40" as="geometry" />
        </mxCell>
        <mxCell id="rn0mMrodME0fii2WGuMn-171" style="edgeStyle=orthogonalEdgeStyle;rounded=0;orthogonalLoop=1;jettySize=auto;html=1;exitX=0.5;exitY=1;exitDx=0;exitDy=0;entryX=0.5;entryY=0;entryDx=0;entryDy=0;" parent="1" source="rn0mMrodME0fii2WGuMn-129" target="rn0mMrodME0fii2WGuMn-170" edge="1">
          <mxGeometry relative="1" as="geometry" />
        </mxCell>
        <mxCell id="rn0mMrodME0fii2WGuMn-129" value="获取原有方案下所有策略排序" style="whiteSpace=wrap;html=1;rounded=1;fillColor=#d0cee2;strokeColor=#56517e;" parent="1" vertex="1">
          <mxGeometry x="-727.5" y="810" width="115" height="30" as="geometry" />
        </mxCell>
        <mxCell id="rn0mMrodME0fii2WGuMn-152" style="edgeStyle=orthogonalEdgeStyle;rounded=0;orthogonalLoop=1;jettySize=auto;html=1;exitX=0.5;exitY=1;exitDx=0;exitDy=0;entryX=0.417;entryY=-0.118;entryDx=0;entryDy=0;entryPerimeter=0;" parent="1" source="rn0mMrodME0fii2WGuMn-134" target="rn0mMrodME0fii2WGuMn-147" edge="1">
          <mxGeometry relative="1" as="geometry" />
        </mxCell>
        <mxCell id="rn0mMrodME0fii2WGuMn-134" value="根据条件不同重新针对策略进行排序" style="rounded=1;whiteSpace=wrap;html=1;fillColor=#d0cee2;strokeColor=#56517e;" parent="1" vertex="1">
          <mxGeometry x="-760" y="1020" width="180" height="60" as="geometry" />
        </mxCell>
        <mxCell id="rn0mMrodME0fii2WGuMn-182" value="校验不通过" style="edgeStyle=orthogonalEdgeStyle;rounded=0;orthogonalLoop=1;jettySize=auto;html=1;exitX=0;exitY=0.5;exitDx=0;exitDy=0;entryX=0;entryY=0.5;entryDx=0;entryDy=0;" parent="1" source="rn0mMrodME0fii2WGuMn-141" target="rn0mMrodME0fii2WGuMn-117" edge="1">
          <mxGeometry relative="1" as="geometry">
            <Array as="points">
              <mxPoint x="-990" y="745" />
              <mxPoint x="-990" y="1240" />
              <mxPoint x="-730" y="1240" />
            </Array>
          </mxGeometry>
        </mxCell>
        <mxCell id="rn0mMrodME0fii2WGuMn-141" value="根据排序类型和排序方式校验数据" style="rhombus;whiteSpace=wrap;html=1;fillColor=#6a00ff;fontColor=#ffffff;strokeColor=#3700CC;" parent="1" vertex="1">
          <mxGeometry x="-700" y="715" width="60" height="60" as="geometry" />
        </mxCell>
        <mxCell id="rn0mMrodME0fii2WGuMn-160" style="edgeStyle=orthogonalEdgeStyle;rounded=0;orthogonalLoop=1;jettySize=auto;html=1;exitX=0.5;exitY=1;exitDx=0;exitDy=0;entryX=0.5;entryY=0;entryDx=0;entryDy=0;" parent="1" source="rn0mMrodME0fii2WGuMn-147" target="rn0mMrodME0fii2WGuMn-117" edge="1">
          <mxGeometry relative="1" as="geometry" />
        </mxCell>
        <mxCell id="rn0mMrodME0fii2WGuMn-147" value="批量保存或更新" style="whiteSpace=wrap;html=1;rounded=1;fillColor=#d0cee2;strokeColor=#56517e;" parent="1" vertex="1">
          <mxGeometry x="-727.5" y="1135" width="115" height="30" as="geometry" />
        </mxCell>
        <mxCell id="rn0mMrodME0fii2WGuMn-178" style="edgeStyle=orthogonalEdgeStyle;rounded=0;orthogonalLoop=1;jettySize=auto;html=1;exitX=0;exitY=0.5;exitDx=0;exitDy=0;entryX=1;entryY=0.5;entryDx=0;entryDy=0;" parent="1" source="rn0mMrodME0fii2WGuMn-170" target="rn0mMrodME0fii2WGuMn-177" edge="1">
          <mxGeometry relative="1" as="geometry" />
        </mxCell>
        <mxCell id="rn0mMrodME0fii2WGuMn-179" style="edgeStyle=orthogonalEdgeStyle;rounded=0;orthogonalLoop=1;jettySize=auto;html=1;exitX=1;exitY=0.5;exitDx=0;exitDy=0;entryX=0;entryY=0.5;entryDx=0;entryDy=0;" parent="1" source="rn0mMrodME0fii2WGuMn-170" target="rn0mMrodME0fii2WGuMn-176" edge="1">
          <mxGeometry relative="1" as="geometry" />
        </mxCell>
        <mxCell id="rn0mMrodME0fii2WGuMn-181" style="edgeStyle=orthogonalEdgeStyle;rounded=0;orthogonalLoop=1;jettySize=auto;html=1;exitX=0.5;exitY=1;exitDx=0;exitDy=0;entryX=0.5;entryY=0;entryDx=0;entryDy=0;" parent="1" source="rn0mMrodME0fii2WGuMn-170" target="rn0mMrodME0fii2WGuMn-127" edge="1">
          <mxGeometry relative="1" as="geometry" />
        </mxCell>
        <mxCell id="rn0mMrodME0fii2WGuMn-170" value="排序方式" style="rhombus;whiteSpace=wrap;html=1;fillColor=#6a00ff;fontColor=#ffffff;strokeColor=#3700CC;" parent="1" vertex="1">
          <mxGeometry x="-700" y="860" width="60" height="60" as="geometry" />
        </mxCell>
        <mxCell id="rn0mMrodME0fii2WGuMn-190" style="edgeStyle=orthogonalEdgeStyle;rounded=0;orthogonalLoop=1;jettySize=auto;html=1;exitX=0.5;exitY=1;exitDx=0;exitDy=0;entryX=1;entryY=0.5;entryDx=0;entryDy=0;" parent="1" source="rn0mMrodME0fii2WGuMn-176" target="rn0mMrodME0fii2WGuMn-134" edge="1">
          <mxGeometry relative="1" as="geometry" />
        </mxCell>
        <mxCell id="rn0mMrodME0fii2WGuMn-176" value="在。。。之前&lt;br&gt;在。。。之后" style="rounded=1;whiteSpace=wrap;html=1;fillColor=#d0cee2;strokeColor=#56517e;" parent="1" vertex="1">
          <mxGeometry x="-600" y="870" width="110" height="40" as="geometry" />
        </mxCell>
        <mxCell id="rn0mMrodME0fii2WGuMn-189" style="edgeStyle=orthogonalEdgeStyle;rounded=0;orthogonalLoop=1;jettySize=auto;html=1;exitX=0.5;exitY=1;exitDx=0;exitDy=0;entryX=0;entryY=0.5;entryDx=0;entryDy=0;" parent="1" source="rn0mMrodME0fii2WGuMn-177" target="rn0mMrodME0fii2WGuMn-134" edge="1">
          <mxGeometry relative="1" as="geometry" />
        </mxCell>
        <mxCell id="rn0mMrodME0fii2WGuMn-177" value="置顶、置底" style="rounded=1;whiteSpace=wrap;html=1;fillColor=#d0cee2;strokeColor=#56517e;" parent="1" vertex="1">
          <mxGeometry x="-850" y="870" width="110" height="40" as="geometry" />
        </mxCell>
        <mxCell id="EQXdOdZPoUwupqghVazf-18" style="edgeStyle=orthogonalEdgeStyle;rounded=0;orthogonalLoop=1;jettySize=auto;html=1;exitX=0.5;exitY=1;exitDx=0;exitDy=0;entryX=0.5;entryY=0;entryDx=0;entryDy=0;" parent="1" source="EQXdOdZPoUwupqghVazf-3" target="EQXdOdZPoUwupqghVazf-9" edge="1">
          <mxGeometry relative="1" as="geometry" />
        </mxCell>
        <mxCell id="EQXdOdZPoUwupqghVazf-3" value="研发部" style="rounded=1;whiteSpace=wrap;html=1;" parent="1" vertex="1">
          <mxGeometry x="-1240" y="1570" width="70" height="40" as="geometry" />
        </mxCell>
        <mxCell id="EQXdOdZPoUwupqghVazf-17" style="edgeStyle=orthogonalEdgeStyle;rounded=0;orthogonalLoop=1;jettySize=auto;html=1;exitX=0.5;exitY=1;exitDx=0;exitDy=0;entryX=0.5;entryY=0;entryDx=0;entryDy=0;" parent="1" source="EQXdOdZPoUwupqghVazf-5" target="EQXdOdZPoUwupqghVazf-3" edge="1">
          <mxGeometry relative="1" as="geometry" />
        </mxCell>
        <mxCell id="EQXdOdZPoUwupqghVazf-25" style="edgeStyle=orthogonalEdgeStyle;rounded=0;orthogonalLoop=1;jettySize=auto;html=1;exitX=0;exitY=0.5;exitDx=0;exitDy=0;entryX=0.5;entryY=0;entryDx=0;entryDy=0;" parent="1" source="EQXdOdZPoUwupqghVazf-5" target="EQXdOdZPoUwupqghVazf-10" edge="1">
          <mxGeometry relative="1" as="geometry" />
        </mxCell>
        <mxCell id="EQXdOdZPoUwupqghVazf-5" value="技术中心" style="rounded=1;whiteSpace=wrap;html=1;fillColor=#d5e8d4;strokeColor=#82b366;" parent="1" vertex="1">
          <mxGeometry x="-1240" y="1500" width="70" height="40" as="geometry" />
        </mxCell>
        <mxCell id="EQXdOdZPoUwupqghVazf-19" style="edgeStyle=orthogonalEdgeStyle;rounded=0;orthogonalLoop=1;jettySize=auto;html=1;exitX=0.5;exitY=1;exitDx=0;exitDy=0;entryX=0.5;entryY=0;entryDx=0;entryDy=0;" parent="1" source="EQXdOdZPoUwupqghVazf-9" target="EQXdOdZPoUwupqghVazf-12" edge="1">
          <mxGeometry relative="1" as="geometry" />
        </mxCell>
        <mxCell id="EQXdOdZPoUwupqghVazf-20" style="edgeStyle=orthogonalEdgeStyle;rounded=0;orthogonalLoop=1;jettySize=auto;html=1;exitX=1;exitY=0.5;exitDx=0;exitDy=0;" parent="1" source="EQXdOdZPoUwupqghVazf-9" target="EQXdOdZPoUwupqghVazf-15" edge="1">
          <mxGeometry relative="1" as="geometry" />
        </mxCell>
        <mxCell id="EQXdOdZPoUwupqghVazf-21" style="edgeStyle=orthogonalEdgeStyle;rounded=0;orthogonalLoop=1;jettySize=auto;html=1;exitX=1;exitY=0.5;exitDx=0;exitDy=0;entryX=0.5;entryY=0;entryDx=0;entryDy=0;" parent="1" source="EQXdOdZPoUwupqghVazf-9" target="EQXdOdZPoUwupqghVazf-16" edge="1">
          <mxGeometry relative="1" as="geometry" />
        </mxCell>
        <mxCell id="EQXdOdZPoUwupqghVazf-22" style="edgeStyle=orthogonalEdgeStyle;rounded=0;orthogonalLoop=1;jettySize=auto;html=1;exitX=0;exitY=0.5;exitDx=0;exitDy=0;entryX=0.5;entryY=0;entryDx=0;entryDy=0;" parent="1" source="EQXdOdZPoUwupqghVazf-9" target="EQXdOdZPoUwupqghVazf-14" edge="1">
          <mxGeometry relative="1" as="geometry" />
        </mxCell>
        <mxCell id="EQXdOdZPoUwupqghVazf-23" style="edgeStyle=orthogonalEdgeStyle;rounded=0;orthogonalLoop=1;jettySize=auto;html=1;exitX=0;exitY=0.5;exitDx=0;exitDy=0;entryX=0.5;entryY=0;entryDx=0;entryDy=0;" parent="1" source="EQXdOdZPoUwupqghVazf-9" target="EQXdOdZPoUwupqghVazf-13" edge="1">
          <mxGeometry relative="1" as="geometry" />
        </mxCell>
        <mxCell id="EQXdOdZPoUwupqghVazf-9" value="销售平台" style="rounded=1;whiteSpace=wrap;html=1;fillColor=#fff2cc;strokeColor=#d6b656;" parent="1" vertex="1">
          <mxGeometry x="-1240" y="1640" width="70" height="40" as="geometry" />
        </mxCell>
        <mxCell id="EQXdOdZPoUwupqghVazf-10" value="产品" style="rounded=1;whiteSpace=wrap;html=1;" parent="1" vertex="1">
          <mxGeometry x="-1350" y="1570" width="70" height="40" as="geometry" />
        </mxCell>
        <mxCell id="EQXdOdZPoUwupqghVazf-12" value="CAPI组" style="rounded=1;whiteSpace=wrap;html=1;fillColor=#f8cecc;strokeColor=#b85450;" parent="1" vertex="1">
          <mxGeometry x="-1240" y="1710" width="70" height="40" as="geometry" />
        </mxCell>
        <mxCell id="EQXdOdZPoUwupqghVazf-32" style="edgeStyle=orthogonalEdgeStyle;curved=1;rounded=0;orthogonalLoop=1;jettySize=auto;html=1;exitX=0.5;exitY=1;exitDx=0;exitDy=0;dashed=1;" parent="1" source="EQXdOdZPoUwupqghVazf-13" edge="1">
          <mxGeometry relative="1" as="geometry">
            <mxPoint x="-1210" y="1750" as="targetPoint" />
            <Array as="points">
              <mxPoint x="-1295" y="1770" />
              <mxPoint x="-1230" y="1770" />
              <mxPoint x="-1230" y="1750" />
            </Array>
          </mxGeometry>
        </mxCell>
        <mxCell id="EQXdOdZPoUwupqghVazf-13" value="会员组" style="rounded=1;whiteSpace=wrap;html=1;" parent="1" vertex="1">
          <mxGeometry x="-1330" y="1710" width="70" height="40" as="geometry" />
        </mxCell>
        <mxCell id="EQXdOdZPoUwupqghVazf-29" style="edgeStyle=orthogonalEdgeStyle;rounded=0;orthogonalLoop=1;jettySize=auto;html=1;exitX=0.5;exitY=1;exitDx=0;exitDy=0;entryX=0.5;entryY=1;entryDx=0;entryDy=0;dashed=1;curved=1;" parent="1" source="EQXdOdZPoUwupqghVazf-14" target="EQXdOdZPoUwupqghVazf-12" edge="1">
          <mxGeometry relative="1" as="geometry">
            <Array as="points">
              <mxPoint x="-1385" y="1790" />
              <mxPoint x="-1205" y="1790" />
            </Array>
          </mxGeometry>
        </mxCell>
        <mxCell id="EQXdOdZPoUwupqghVazf-14" value="交易组" style="rounded=1;whiteSpace=wrap;html=1;" parent="1" vertex="1">
          <mxGeometry x="-1420" y="1710" width="70" height="40" as="geometry" />
        </mxCell>
        <mxCell id="EQXdOdZPoUwupqghVazf-35" style="edgeStyle=orthogonalEdgeStyle;curved=1;rounded=0;orthogonalLoop=1;jettySize=auto;html=1;exitX=0.5;exitY=1;exitDx=0;exitDy=0;entryX=0.5;entryY=1;entryDx=0;entryDy=0;dashed=1;" parent="1" source="EQXdOdZPoUwupqghVazf-15" target="EQXdOdZPoUwupqghVazf-12" edge="1">
          <mxGeometry relative="1" as="geometry">
            <Array as="points">
              <mxPoint x="-1020" y="1820" />
              <mxPoint x="-1205" y="1820" />
            </Array>
          </mxGeometry>
        </mxCell>
        <mxCell id="EQXdOdZPoUwupqghVazf-15" value="企业及三方组" style="rounded=1;whiteSpace=wrap;html=1;" parent="1" vertex="1">
          <mxGeometry x="-1060" y="1710" width="80" height="40" as="geometry" />
        </mxCell>
        <mxCell id="EQXdOdZPoUwupqghVazf-34" style="edgeStyle=orthogonalEdgeStyle;curved=1;rounded=0;orthogonalLoop=1;jettySize=auto;html=1;exitX=0.5;exitY=1;exitDx=0;exitDy=0;entryX=0.5;entryY=1;entryDx=0;entryDy=0;dashed=1;" parent="1" source="EQXdOdZPoUwupqghVazf-16" target="EQXdOdZPoUwupqghVazf-12" edge="1">
          <mxGeometry relative="1" as="geometry" />
        </mxCell>
        <mxCell id="EQXdOdZPoUwupqghVazf-16" value="营销组" style="rounded=1;whiteSpace=wrap;html=1;" parent="1" vertex="1">
          <mxGeometry x="-1150" y="1710" width="70" height="40" as="geometry" />
        </mxCell>
        <mxCell id="EQXdOdZPoUwupqghVazf-31" style="edgeStyle=orthogonalEdgeStyle;curved=1;rounded=0;orthogonalLoop=1;jettySize=auto;html=1;exitX=0;exitY=0.5;exitDx=0;exitDy=0;dashed=1;" parent="1" source="EQXdOdZPoUwupqghVazf-24" edge="1">
          <mxGeometry relative="1" as="geometry">
            <mxPoint x="-1200" y="1750" as="targetPoint" />
            <Array as="points">
              <mxPoint x="-1480" y="1520" />
              <mxPoint x="-1480" y="1830" />
              <mxPoint x="-1200" y="1830" />
            </Array>
          </mxGeometry>
        </mxCell>
        <mxCell id="EQXdOdZPoUwupqghVazf-24" value="共享前端" style="rounded=1;whiteSpace=wrap;html=1;fillColor=#d5e8d4;strokeColor=#82b366;" parent="1" vertex="1">
          <mxGeometry x="-1430" y="1500" width="70" height="40" as="geometry" />
        </mxCell>
        <mxCell id="EQXdOdZPoUwupqghVazf-27" value="" style="endArrow=none;dashed=1;html=1;dashPattern=1 3;strokeWidth=2;rounded=0;entryX=0;entryY=0.5;entryDx=0;entryDy=0;exitX=0.5;exitY=1;exitDx=0;exitDy=0;edgeStyle=orthogonalEdgeStyle;curved=1;" parent="1" source="EQXdOdZPoUwupqghVazf-12" target="EQXdOdZPoUwupqghVazf-10" edge="1">
          <mxGeometry x="-1" y="533" width="50" height="50" relative="1" as="geometry">
            <mxPoint x="-1590" y="1670" as="sourcePoint" />
            <mxPoint x="-1390" y="1590" as="targetPoint" />
            <Array as="points">
              <mxPoint x="-1205" y="1810" />
              <mxPoint x="-1450" y="1810" />
              <mxPoint x="-1450" y="1590" />
            </Array>
            <mxPoint x="-153" y="317" as="offset" />
          </mxGeometry>
        </mxCell>
        <mxCell id="qkqdTj-M8JjV1qXhdFVq-1" value="t_position&lt;br&gt;展示位分类表" style="swimlane;whiteSpace=wrap;html=1;startSize=30;fillColor=#1ba1e2;fontColor=#ffffff;strokeColor=#006EAF;" vertex="1" parent="1">
          <mxGeometry x="-660" y="1440" width="190" height="230" as="geometry" />
        </mxCell>
        <mxCell id="qkqdTj-M8JjV1qXhdFVq-2" value="id 主键&lt;br&gt;parent_id 父id&lt;br&gt;name 姓名&lt;br&gt;level 级别&lt;br&gt;available_status 有效状态&lt;br&gt;&lt;div&gt;valid 是否有效&lt;/div&gt;&lt;div&gt;create_emp 创建人ID&lt;/div&gt;&lt;div&gt;create_time 创建时间&lt;/div&gt;&lt;div&gt;modify_emp 最后修改人&lt;/div&gt;&lt;div&gt;modify_time 最后修改时间&lt;/div&gt;&lt;div&gt;modify_remark 修改备注&lt;/div&gt;&lt;div&gt;remark 描述&lt;/div&gt;" style="text;html=1;align=left;verticalAlign=middle;resizable=0;points=[];autosize=1;strokeColor=none;fillColor=none;" vertex="1" parent="qkqdTj-M8JjV1qXhdFVq-1">
          <mxGeometry x="10" y="30" width="160" height="190" as="geometry" />
        </mxCell>
        <mxCell id="qkqdTj-M8JjV1qXhdFVq-3" value="t_position_plan_tactic_bind&lt;br&gt;展示位方案与策略关联表" style="swimlane;whiteSpace=wrap;html=1;startSize=30;fillColor=#1ba1e2;fontColor=#ffffff;strokeColor=#006EAF;" vertex="1" parent="1">
          <mxGeometry x="-508.5" y="1790" width="190" height="175" as="geometry" />
        </mxCell>
        <mxCell id="qkqdTj-M8JjV1qXhdFVq-4" value="id 主键&lt;br&gt;&lt;div&gt;plan_id 展示位方案id&lt;/div&gt;&lt;div&gt;tactic_id 展示位策略id&lt;/div&gt;&lt;div&gt;create_time 绑定时间&lt;/div&gt;&lt;div&gt;create_by 绑定用户&lt;/div&gt;" style="text;html=1;align=left;verticalAlign=middle;resizable=0;points=[];autosize=1;strokeColor=none;fillColor=none;" vertex="1" parent="qkqdTj-M8JjV1qXhdFVq-3">
          <mxGeometry x="10" y="42.5" width="140" height="90" as="geometry" />
        </mxCell>
        <mxCell id="qkqdTj-M8JjV1qXhdFVq-5" value="t_position_config&lt;br&gt;展示位配置表-模块配置表" style="swimlane;whiteSpace=wrap;html=1;startSize=30;fillColor=#1ba1e2;fontColor=#ffffff;strokeColor=#006EAF;" vertex="1" parent="1">
          <mxGeometry x="-300" y="1450" width="260" height="175" as="geometry" />
        </mxCell>
        <mxCell id="qkqdTj-M8JjV1qXhdFVq-6" value="id 主键&lt;br&gt;&lt;div&gt;position_id 展示位小类ID&lt;/div&gt;&lt;div&gt;module_style 模块样式&lt;/div&gt;&lt;div&gt;module_num 模块数量&lt;/div&gt;&lt;div&gt;module_config 模块配置&lt;/div&gt;&lt;div&gt;is_customize 是否自定义模块&lt;/div&gt;&lt;div&gt;customize_module_config 自定义模块配置&lt;/div&gt;&lt;div&gt;module_type 模块类型&lt;/div&gt;" style="text;html=1;align=left;verticalAlign=middle;resizable=0;points=[];autosize=1;strokeColor=none;fillColor=none;" vertex="1" parent="qkqdTj-M8JjV1qXhdFVq-5">
          <mxGeometry x="10" y="30" width="250" height="130" as="geometry" />
        </mxCell>
        <mxCell id="qkqdTj-M8JjV1qXhdFVq-7" style="edgeStyle=orthogonalEdgeStyle;rounded=0;orthogonalLoop=1;jettySize=auto;html=1;exitX=1;exitY=0.25;exitDx=0;exitDy=0;" edge="1" parent="1" source="qkqdTj-M8JjV1qXhdFVq-9">
          <mxGeometry relative="1" as="geometry">
            <mxPoint x="-516" y="1860.1764705882354" as="targetPoint" />
          </mxGeometry>
        </mxCell>
        <mxCell id="qkqdTj-M8JjV1qXhdFVq-8" value="N : N" style="edgeLabel;html=1;align=center;verticalAlign=middle;resizable=0;points=[];" vertex="1" connectable="0" parent="qkqdTj-M8JjV1qXhdFVq-7">
          <mxGeometry x="-0.288" relative="1" as="geometry">
            <mxPoint as="offset" />
          </mxGeometry>
        </mxCell>
        <mxCell id="qkqdTj-M8JjV1qXhdFVq-9" value="t_position_plan&lt;br&gt;展示位方案" style="swimlane;whiteSpace=wrap;html=1;startSize=30;fillColor=#1ba1e2;fontColor=#ffffff;strokeColor=#006EAF;" vertex="1" parent="1">
          <mxGeometry x="-846" y="1790" width="210" height="280" as="geometry" />
        </mxCell>
        <mxCell id="qkqdTj-M8JjV1qXhdFVq-10" value="id 主键&lt;br&gt;&lt;div&gt;plan_no 方案编号&lt;/div&gt;&lt;div&gt;plan_name 方案名称&lt;/div&gt;&lt;div&gt;position_id 位置大类ID&lt;/div&gt;&lt;div&gt;position_code 位置大类编号&lt;/div&gt;&lt;div&gt;enable_status 启用状态&lt;/div&gt;&lt;div&gt;is_default 是否默认方案&lt;/div&gt;&lt;div&gt;start_time 创建时间&lt;/div&gt;&lt;div&gt;end_time 结束时间&lt;/div&gt;&lt;div&gt;create_emp 创建人ID&lt;/div&gt;&lt;div&gt;create_time 创建时间&lt;/div&gt;&lt;div&gt;modify_emp 最后修改人&lt;/div&gt;&lt;div&gt;modify_time 最后修改时间&lt;/div&gt;&lt;div&gt;modify_remark 修改备注&lt;/div&gt;&lt;div&gt;remark 描述&lt;/div&gt;&lt;div&gt;delete_status 是否删除&lt;/div&gt;" style="text;html=1;align=left;verticalAlign=middle;resizable=0;points=[];autosize=1;strokeColor=none;fillColor=none;" vertex="1" parent="qkqdTj-M8JjV1qXhdFVq-9">
          <mxGeometry x="10" y="30" width="170" height="240" as="geometry" />
        </mxCell>
        <mxCell id="qkqdTj-M8JjV1qXhdFVq-11" value="1 : N" style="edgeStyle=orthogonalEdgeStyle;rounded=0;orthogonalLoop=1;jettySize=auto;html=1;exitX=0.25;exitY=1;exitDx=0;exitDy=0;entryX=0.25;entryY=0;entryDx=0;entryDy=0;" edge="1" parent="1" source="qkqdTj-M8JjV1qXhdFVq-12" target="qkqdTj-M8JjV1qXhdFVq-24">
          <mxGeometry relative="1" as="geometry" />
        </mxCell>
        <mxCell id="qkqdTj-M8JjV1qXhdFVq-12" value="t_menu_second_tactic&lt;br&gt;二级类目策略信息表" style="swimlane;whiteSpace=wrap;html=1;startSize=30;fillColor=#1ba1e2;fontColor=#ffffff;strokeColor=#006EAF;" vertex="1" parent="1">
          <mxGeometry x="131" y="2015" width="189" height="120" as="geometry" />
        </mxCell>
        <mxCell id="qkqdTj-M8JjV1qXhdFVq-13" value="id 主键，二级策略ID&lt;br&gt;tactic_id 策略ID&lt;br&gt;category_id 所属类目ID&lt;br&gt;delete_status 删除状态" style="text;html=1;align=left;verticalAlign=middle;resizable=0;points=[];autosize=1;strokeColor=none;fillColor=none;" vertex="1" parent="qkqdTj-M8JjV1qXhdFVq-12">
          <mxGeometry x="10" y="35" width="150" height="70" as="geometry" />
        </mxCell>
        <mxCell id="qkqdTj-M8JjV1qXhdFVq-14" style="edgeStyle=orthogonalEdgeStyle;rounded=0;orthogonalLoop=1;jettySize=auto;html=1;exitX=1;exitY=0.25;exitDx=0;exitDy=0;" edge="1" parent="1" source="qkqdTj-M8JjV1qXhdFVq-18">
          <mxGeometry relative="1" as="geometry">
            <mxPoint x="131" y="1920.1764705882354" as="targetPoint" />
          </mxGeometry>
        </mxCell>
        <mxCell id="qkqdTj-M8JjV1qXhdFVq-15" value="N : N" style="edgeLabel;html=1;align=center;verticalAlign=middle;resizable=0;points=[];" vertex="1" connectable="0" parent="qkqdTj-M8JjV1qXhdFVq-14">
          <mxGeometry x="-0.2858" y="-3" relative="1" as="geometry">
            <mxPoint as="offset" />
          </mxGeometry>
        </mxCell>
        <mxCell id="qkqdTj-M8JjV1qXhdFVq-16" style="edgeStyle=orthogonalEdgeStyle;rounded=0;orthogonalLoop=1;jettySize=auto;html=1;exitX=1;exitY=0.5;exitDx=0;exitDy=0;" edge="1" parent="1" source="qkqdTj-M8JjV1qXhdFVq-18">
          <mxGeometry relative="1" as="geometry">
            <mxPoint x="131" y="2049.5882352941176" as="targetPoint" />
          </mxGeometry>
        </mxCell>
        <mxCell id="qkqdTj-M8JjV1qXhdFVq-17" value="1 : N" style="edgeLabel;html=1;align=center;verticalAlign=middle;resizable=0;points=[];" vertex="1" connectable="0" parent="qkqdTj-M8JjV1qXhdFVq-16">
          <mxGeometry x="0.2159" y="-3" relative="1" as="geometry">
            <mxPoint x="-15" as="offset" />
          </mxGeometry>
        </mxCell>
        <mxCell id="qkqdTj-M8JjV1qXhdFVq-18" value="t_position_tactic&lt;br&gt;展示位策略信息表" style="swimlane;whiteSpace=wrap;html=1;startSize=30;fillColor=#1ba1e2;fontColor=#ffffff;strokeColor=#006EAF;" vertex="1" parent="1">
          <mxGeometry x="-169" y="1790" width="240" height="520" as="geometry" />
        </mxCell>
        <mxCell id="qkqdTj-M8JjV1qXhdFVq-19" value="id 主键&lt;br&gt;plan_id 所属方案id&lt;br&gt;tactic_no 策略编号&lt;br&gt;tactic_name 策略名称&lt;br&gt;&lt;span style=&quot;background-color: initial;&quot;&gt;category_id 所属菜单类目&lt;/span&gt;&lt;div&gt;available_status 有效状态&lt;/div&gt;&lt;div&gt;desc 策略描述&lt;/div&gt;&lt;div&gt;show_type 展示层级&lt;/div&gt;&lt;div&gt;is_algorithm 是否经过算法排序&lt;/div&gt;&lt;div&gt;create_by 创建人&lt;/div&gt;&lt;div&gt;create_time 创建时间&lt;/div&gt;&lt;div&gt;last_modify_by 最后修改人&lt;/div&gt;&lt;div&gt;last_modify_time 最后修改时间&lt;/div&gt;&lt;div&gt;remark 备注&lt;/div&gt;&lt;div&gt;delete_status 删除状态&lt;/div&gt;&lt;div&gt;sort_num 排序值&lt;/div&gt;&lt;div&gt;show_content_type 展示内容&lt;/div&gt;&lt;div&gt;show_num 展示数量&lt;/div&gt;&lt;div&gt;algorithm_replace 是否开启算法替位&lt;/div&gt;&lt;div&gt;algorithm_pattern 算法模型&lt;/div&gt;&lt;div&gt;top_replace_start 替换区间起始值&lt;/div&gt;&lt;div&gt;top_replace_end 替换区间结束值&lt;/div&gt;&lt;div&gt;commodity_tactic_no 商品策略编码&lt;/div&gt;&lt;div&gt;commodity_sort_type 商品排序类型&lt;/div&gt;&lt;div&gt;&lt;font color=&quot;#ff0000&quot;&gt;copy_source_tactic 复制源策略编号&lt;/font&gt;&lt;/div&gt;&lt;div&gt;&lt;font color=&quot;#ff0000&quot;&gt;scope_change_type 变更范围类型&lt;/font&gt;&lt;/div&gt;&lt;div&gt;&lt;font color=&quot;#ff0000&quot;&gt;period_main_type 时间段主类型&lt;/font&gt;&lt;/div&gt;&lt;div&gt;&lt;font color=&quot;#ff0000&quot;&gt;period_sub_type 时间段子类型&lt;/font&gt;&lt;/div&gt;&lt;div&gt;&lt;font color=&quot;#ff0000&quot;&gt;period_start_time 开始时间&lt;/font&gt;&lt;/div&gt;&lt;div&gt;&lt;font color=&quot;#ff0000&quot;&gt;period_end_time 结束时间&lt;/font&gt;&lt;/div&gt;&lt;div&gt;&lt;font color=&quot;#ff0000&quot;&gt;period_day 星期集合,逗号隔开&lt;/font&gt;&lt;/div&gt;" style="text;html=1;align=left;verticalAlign=middle;resizable=0;points=[];autosize=1;strokeColor=none;fillColor=none;" vertex="1" parent="qkqdTj-M8JjV1qXhdFVq-18">
          <mxGeometry x="10" y="35" width="220" height="460" as="geometry" />
        </mxCell>
        <mxCell id="qkqdTj-M8JjV1qXhdFVq-24" value="t_menu_third_tactic&lt;br&gt;三级类目策略信息表" style="swimlane;whiteSpace=wrap;html=1;startSize=30;fillColor=#1ba1e2;fontColor=#ffffff;strokeColor=#006EAF;" vertex="1" parent="1">
          <mxGeometry x="131" y="2185" width="189" height="120" as="geometry" />
        </mxCell>
        <mxCell id="qkqdTj-M8JjV1qXhdFVq-25" value="id 主键，三级策略ID&lt;br&gt;tactic_id 策略ID&lt;br&gt;second_tatic_id 二级策略ID&lt;br&gt;delete_status 删除状态" style="text;html=1;align=left;verticalAlign=middle;resizable=0;points=[];autosize=1;strokeColor=none;fillColor=none;" vertex="1" parent="qkqdTj-M8JjV1qXhdFVq-24">
          <mxGeometry x="10" y="35" width="170" height="70" as="geometry" />
        </mxCell>
      </root>
    </mxGraphModel>
  </diagram>
</mxfile>
